<svg version="1.1" xmlns="http://www.w3.org/2000/svg" viewBox="0 0 1014.5 853.5">
  <!-- svg-source:excalidraw -->
  <defs>
    <style>
      @font-face {
        font-family: "Virgil";
        src: url("https://excalidraw.com/FG_Virgil.woff2");
      }
      @font-face {
        font-family: "Cascadia";
        src: url("https://excalidraw.com/Cascadia.woff2");
      }
    </style>
  </defs>
  <rect x="0" y="0" width="1014.5" height="853.5" fill="#ffffff"></rect><g transform="translate(10 16.5) rotate(0 223.5 413.5)"><path d="M-0.35648294418433757 0.9547548778418168 C115.82843041174932 2.3947287702737157, 232.6879238410854 0.7586665930089773, 446.63244247609634 -0.43063795273169425 M-0.41279620209021045 0.3927929034505196 C110.73403712875275 0.8420443602906296, 221.93479747107565 0.3227403717848608, 446.844524571668 -0.1768730146302633 M446.27220827266575 -0.034470152109861374 C447.2840691848285 270.06597624747087, 447.2126813455112 540.4304126678035, 447.6108035437763 826.2978616245091 M446.6862480644137 -0.3196826878935099 C444.9269261264764 235.2063607797958, 445.02231910466776 471.458337703906, 446.92163354195657 827.3727037843316 M446.302718019504 826.2324602793223 C270.29787938751855 826.9503191355003, 91.98522505833002 826.3715000019764, -0.07143212420147509 826.1171966705962 M447.407665269672 826.9753635379589 C274.79645831303185 826.8571915851892, 101.73960904614307 826.1402013210776, -0.4047672809487529 827.2669717227483 M-0.5347507365047932 826.847198177129 C-3.0215919955857107 501.557087038178, -3.156375525821001 177.61558506060388, -0.6535300381481648 0.651528549939394 M0.09107682742178441 827.3695364769549 C2.264270390544087 544.1239581055008, 1.6259193196631971 261.98661299515516, 0.14632390774786472 0.001350897178053856" stroke="#000000" stroke-width="1" fill="none"></path></g><g transform="translate(31 35.5) rotate(0 202.5 33)"><path d="M0.40531020361028613 0.3645184721211344 C102.99852397184291 -0.6268092699129826, 204.1431016178679 -1.7391546878631359, 404.09503932088694 0.9364985341886432 M-0.367679465331845 -0.5342710334892944 C146.4018644867379 -2.0719441463533617, 291.90737363919374 -1.4863274297908524, 405.4702947311606 -0.3009521472295001 M403.9165113847703 -1.078945754095912 C403.7902307142876 22.328484602831306, 406.2537231673859 44.93183971866966, 406.6205263417214 66.42704123444855 M404.0888629266992 0.5023346981033683 C404.95407048499214 25.333093779161572, 405.1670888725482 51.3781921165064, 404.9944891342893 65.9850012799725 M406.071111544052 66.19798293360509 C282.71077318553216 64.32433541852872, 161.99151319210938 65.12513785320918, -0.04173261580146849 65.79914264731444 M404.81855707716244 65.86531170872253 C261.1375085946033 64.69382063800941, 116.8435588890903 63.99303730154763, -0.2613891568718478 65.61200863903444 M-0.28515508957207203 65.27867126651108 C0.6264870914258063 39.52957050371915, -2.0742469874583183 15.31684860140085, 1.8832115214318037 0.5033510345965624 M-0.9886628678068519 66.25470809545368 C-0.5993833395652473 41.80312851592898, -0.058676734846085266 18.300934579409656, -0.1097376337274909 0.8546823402866721" stroke="#000000" stroke-width="1" fill="none"></path></g><g transform="translate(291 123.5) rotate(0 73.5 18)"><path d="M1.0183337610214949 -0.011021731421351433 C46.98372113099322 -0.6109377823304383, 95.69822158385068 -2.168720968766138, 148.91859200410545 0.3546301741153002 M0.8002312490716577 -0.037376062013208866 C31.81565074985847 0.9108229005243629, 64.21965152658522 -0.28816932202316825, 146.67499655578285 -0.24125580582767725 M145.01145747117698 -0.9364088159054518 C145.70400129873306 13.626982777565718, 147.44007103759796 23.47693633697927, 146.71484491042793 35.27867126651108 M146.73642438743263 0.9416057607159019 C147.0010382235795 12.762165866978467, 146.16430056102573 24.73172709476203, 146.01133713219315 36.25470809545368 M147.40471049956977 35.78052473254502 C119.0965727054514 36.08861386234872, 88.79670326765626 34.172413164926695, 0.0984219592064619 34.926392855122685 M146.35031470749527 35.041245504282415 C103.52684145690873 36.27151731842198, 60.19772340804339 36.267389368945736, 0.8072657594457269 35.525474204681814 M-0.8056302983313799 35.41986924596131 C0.20346371199935676 24.219873677194116, -0.9335553858056664 11.77580042593181, 1.3605218809098005 1.7517133969813585 M0.6247208127751946 35.898353471420705 C-0.9331919115781784 22.519786494411527, 0.19636948287487033 11.054563900642098, 0.7262651035562158 -0.4571862379088998" stroke="#000000" stroke-width="1" fill="none"></path></g><g transform="translate(58 54.5) rotate(0 57.5 13)"><text x="0" y="18" font-family="Virgil, Segoe UI Emoji" font-size="20px" fill="#000000" text-anchor="start" style="white-space: pre;" direction="ltr">Input: Name</text></g><g transform="translate(331 131.5) rotate(0 30.5 13)"><text x="30.5" y="18" font-family="Virgil, Segoe UI Emoji" font-size="20px" fill="#000000" text-anchor="middle" style="white-space: pre;" direction="ltr">Submit</text></g><g transform="translate(39 290.5) rotate(0 197.5 197)"><path d="M-1.0975602143011762 -0.020800532084517178 C142.06856501721134 -1.782395454642692, 282.4584700572489 -1.7922048110024122, 395.46429067931336 0.30234113492030645 M-0.23757745224108914 -0.18838912961653245 C112.26816390801432 -1.1675030097693584, 225.60865774224203 -1.2277694607303522, 395.47914014880513 -0.4340210282758809 M395.29698838674426 -1.0239706672480338 C396.57802564448156 150.28320371249606, 398.0964110347972 302.73407127917943, 394.869304394825 393.3583545983815 M394.92303107841775 0.338957504580551 C393.1855686179085 137.78358527073604, 392.9113557574741 275.8829662646316, 394.43035172913375 394.1148994157918 M395.2160145919365 393.9834393678164 C248.07203793761678 396.4823040952682, 99.37437761672449 395.27359928338785, 0.4220471956188008 395.08264371513434 M394.8259612458707 394.11547542375564 C283.2045383913447 391.84081209670114, 170.39674190849615 391.5052365210835, 0.14054269952461493 393.7502487526887 M0.11337222368785069 393.36292803624036 C1.7449492873670214 292.9029371566602, 2.8974360031541697 190.5462492923885, -0.6439388590044148 0.5779753978919037 M-0.31453002644889316 393.5887772854776 C1.311442596439611 257.4956220742747, 1.1325993656401148 121.66681555123678, -0.05823196573458873 -0.49468277433245816" stroke="#000000" stroke-width="1" fill="none"></path></g><g transform="translate(130 238.5) rotate(0 99 19)"><path d="M-1.4178413730114698 -0.6209166366606951 C56.8890961272642 0.1877403941564264, 113.60503211691976 -1.2495812091417609, 196.3417905587703 0.5720624011009932 M0.10940124001353979 0.9072566935792565 C40.02707487009466 -1.4859830627031623, 80.48663292247802 -1.104692656714469, 198.07738219108433 -0.6842541685327888 M196.33403098769486 -1.9901929814368486 C197.75236855788157 13.196406838856637, 200.33453898472712 25.939797964692115, 198.43204373307526 37.18303927592933 M197.19660697784275 -0.584572552703321 C197.93324053188786 11.776463709771633, 197.7653457214497 25.654956980608404, 198.9297694703564 38.9021035740152 M197.2059461493045 36.2265730779618 C148.5649447971955 37.466374305058274, 102.73198978602886 37.018390622902665, 0.7998714465647936 36.594597129151225 M198.57625408377498 38.36087790224701 C140.53680890351535 37.30961100975051, 83.65124765727668 37.59610428133979, -0.2312185326591134 38.850210011936724 M1.0072913188487291 36.95925214700401 C-1.7291850641183555 25.738171957619485, -1.595275898259133 12.415069597214458, -0.38401096872985363 -0.5934715587645769 M0.5736294230446219 37.66587978694588 C-0.20068551866337658 25.122588304057714, -0.7850441810302436 13.13026213031262, 0.16091598477214575 -0.4244990637525916" stroke="#000000" stroke-width="1" fill="none"></path></g><g transform="translate(156 245.5) rotate(0 72 13)"><text x="0" y="18" font-family="Virgil, Segoe UI Emoji" font-size="20px" fill="#000000" text-anchor="start" style="white-space: pre;" direction="ltr">Show Students</text></g><g transform="translate(60 326.5) rotate(0 11.5 13)"><path d="M13.668780286403882 -0.9586105203541156 C16.593385199198462 3.446982508577367, 18.80074576299811 8.97196197746966, 23.057801620401786 12.397388259547562 M11.406744607661865 -0.28319188631969994 C16.102250229252043 5.2265375682671165, 20.434698163072806 9.558341693896816, 22.17806521441591 13.919981892386629 M24.11485518746036 14.649627312617385 C19.362348155464883 17.708401989572423, 16.942196095504432 18.086751267175845, 10.736076178726973 24.89705339224497 M22.2284828495213 14.781388999606797 C19.311060480073376 18.486208291655707, 15.283903041130456 23.165008237338053, 12.128718346833558 25.73749847147903 M12.682298321655312 24.754102379097453 C7.695911593334439 23.575773567063912, 5.811351802058855 18.906591691443367, 1.4057047895888282 13.677804731343404 M11.908992153276834 26.638926406767236 C8.414154417263836 22.64752239716782, 5.8128347775910045 20.74278815114793, 0.18825832633366657 13.681318642915063 M1.3818760276525883 13.289673412596668 C5.6964584837332435 7.610365780627323, 8.61811534247863 1.4909288033374792, 10.387329881916568 0.9463095928805094 M0.19005226249751095 14.566028010928088 C2.0723824989281043 10.890463604128888, 4.228610813706703 8.05222588056584, 12.389310639305112 -0.7055518487877515" stroke="#000000" stroke-width="1" fill="none"></path></g><g transform="translate(60.5 367.5) rotate(0 11.5 13)"><path d="M10.793683735264255 1.2850555107981851 C14.313799957066802 2.1581333255983695, 14.909561638119055 7.754888847000048, 23.877337025940754 14.166591386460645 M11.712896471011067 0.2435375881990126 C15.47762072234423 5.569558196435997, 20.272164034342012 9.338494618620825, 22.76720083107635 14.747812766180834 M22.690937828455716 13.17111165164668 C17.52716554173569 17.645338469228584, 14.199725389455645 24.77952667132656, 10.687458294793357 25.469107990231763 M22.69430850843336 14.716880950978114 C20.87001078662891 17.324187653820694, 17.892923496163014 20.07223395361019, 12.509861704845182 25.585495338647483 M12.870943591619712 24.445957997821463 C10.397456404573223 23.702460724240026, 6.010792657747381 20.49212607292411, -0.5592796871825982 13.781440286228062 M11.350639720995913 25.359368630984637 C9.092085631635415 22.74438579998113, 6.0943072437729535 19.901077348361255, 0.7628490405642905 14.758985433166105 M1.3363121845511117 15.504619462749718 C4.23213305395212 10.368221147462581, 6.5314443081847395 6.25026045533752, 13.0159394749075 -0.18648397238931236 M0.32500127218106845 14.159560922781054 C3.787214493738455 8.977015314519548, 8.132048115829226 4.847393630722868, 12.362927391588059 -0.11025840078882898" stroke="#000000" stroke-width="1" fill="none"></path></g><g transform="translate(63.25 420) rotate(0 11.5 13)"><path d="M10.400956995418381 -1.3632883907136013 C16.274444806821826 4.338685971467119, 18.523602801558297 7.742632511807932, 22.44366252535018 15.33223136983615 M12.094326426796792 0.6218794725840627 C14.699722037311256 3.195115019587117, 16.741478889470468 5.903903891720231, 22.396401456962494 14.74885689929134 M21.654187546350585 12.548520684550793 C19.91792186033608 16.120644784476987, 17.69813858818098 21.592259605286134, 10.97125597041379 24.41129418657627 M23.394577818716275 14.445789816708135 C18.60950838603058 17.826966581728673, 14.28262043619085 22.494836631208464, 12.014825656652842 25.381166060940128 M12.461542536331836 26.1649950732652 C6.933992583775932 23.507901211070457, 6.628945496200997 20.249299378123983, 0.5010776120754676 15.07138336527296 M11.99442909199385 25.221591061042417 C7.849315147442133 22.17204856348642, 4.403339408272248 18.040585774835833, 0.5497281257652629 14.754445296146006 M0.5868872029855328 13.815966945071285 C5.057358913924872 8.084513294833558, 10.091429443203154 2.4535643241376306, 10.28545635380786 -0.7296611140751559 M-0.2843304131707113 13.300504962787937 C4.412072876251811 9.978702747587645, 8.782448118934962 5.088003401431962, 11.088907860838892 -0.2576792672788307" stroke="#000000" stroke-width="1" fill="none"></path></g><g transform="translate(63.75 461) rotate(0 11.5 13)"><path d="M10.6367116092864 1.6761299976186759 C17.704477041788692 7.0102658788736125, 22.25059642469543 10.45972825324158, 24.33223136983615 12.308794430106994 M12.621879472584062 0.3674494117457262 C16.205724782842463 5.11377288778081, 19.950407201672327 9.327463584938242, 23.74885689929134 13.607593575178562 M21.548520684550795 13.685809564466343 C18.31538760944307 18.262592168811928, 16.98294117548638 21.025076170929697, 10.411294186576272 27.105508448947834 M23.445789816708135 13.74729633422547 C19.939574739637216 16.21306623830017, 17.724560729177476 19.45277760251092, 11.381166060940128 25.902721483889692 M12.164995073265201 24.49502744934153 C8.501025129022638 23.034663951962667, 4.054470900547608 17.24464585035618, 1.071383365272959 14.653505381779045 M11.22159106104242 25.945088981842012 C8.213383491388047 22.62366601028417, 4.207261315715204 18.675425332359314, 0.7544452961460062 14.698288306773978 M-0.1840330549287159 14.493444583379059 C3.2370742055464845 10.465647572476659, 6.760651846826884 3.3749729741085686, 11.270338885924843 0.876007119893472 M-0.6994950372120636 14.334679125945591 C5.2440114825298725 9.444923183871987, 9.613033123641983 2.8718332887302065, 11.742320732721168 0.5734709631254737" stroke="#000000" stroke-width="1" fill="none"></path></g><g transform="translate(65.25 507) rotate(0 11.5 13)"><path d="M12.499649696938928 0.6231994584761746 C15.701484390996251 2.9376892595457047, 19.222744134497137 9.587548344571697, 24.17757835093383 14.257624908611978 M12.150158416601702 0.08749578996460983 C16.42046853276345 4.927631950616148, 20.388002062094955 9.857190451243465, 23.453817991660205 13.599085743087214 M24.077938458777805 13.545190290357965 C20.173302083395132 15.30136016177188, 18.989104591747388 20.451357050542196, 12.94456518963167 27.385543154243713 M22.481482964920158 13.350866164161864 C21.515876592541357 17.217635397929772, 18.419046878844142 19.51812238031963, 11.783564699267524 26.198656919465233 M12.339127475286265 26.21753236221239 C8.264644844183112 22.329749305584688, 6.360662969030665 20.57471793340502, -0.9035866998446792 14.7067879334287 M12.780224019857318 25.423754837309442 C9.03177107230212 22.23532447089451, 4.9024239702122046 20.049362939681696, 0.3256724081566005 14.700540212889916 M1.586685454808065 12.606055633710787 C4.900536095163822 11.102119358195623, 6.760557878837169 4.840456126463948, 11.885100878373963 0.18244549695962897 M-0.136092725313954 14.515436637036734 C4.666650839795735 9.953543999059164, 8.087633900221356 4.912793374798752, 11.219720960401908 0.6774053848638646" stroke="#000000" stroke-width="1" fill="none"></path></g><g transform="translate(65.75 548) rotate(0 11.5 13)"><path d="M12.623199458476174 -0.01168932328387684 C14.41504232663644 4.937758072456589, 20.445984043961946 11.314401282430259, 23.25762490861198 15.153483377075188 M12.08749578996461 0.28334451945873995 C16.30439652214317 5.664448168966544, 20.404984428904523 11.3248062335134, 22.599085743087215 13.172231830835603 M22.545190290357965 13.497961769427816 C18.95720692047092 17.788920045829954, 18.75829975230101 21.26768982892112, 13.385543154243713 24.391297363050484 M22.350866164161864 14.762375689646472 C20.817159020854234 17.073040149492787, 17.710949460239732 20.242707976031607, 12.198656919465233 25.51494634387625 M12.21753236221239 25.12042759662994 C7.70515770312514 22.8162932924705, 5.525993968192315 18.50236575171969, 0.7067879334286995 13.740984998321139 M11.423754837309444 26.519152793031292 C7.231420419486341 21.61166491742895, 4.156977775703954 17.825353050306937, 0.7005402128899147 14.233283793534307 M-1.3939443662892128 14.834761959816367 C4.12075350004684 9.820220824647873, 4.879465770610958 8.099061370724124, 12.182445496959629 0.31771813207581356 M0.5154366370367338 14.779233949588058 C3.285210916394405 11.017649091415024, 5.594415561642057 6.450407967970683, 12.677405384863864 -0.8449483628030017" stroke="#000000" stroke-width="1" fill="none"></path></g><g transform="translate(64.25 597) rotate(0 11.5 13)"><path d="M11.543558967327945 -1.5844417227615666 C14.37714898718506 5.536258529255335, 19.242456723118796 10.438747315364411, 24.367904080246692 14.352096151092608 M11.192117631122587 -0.10702560212873446 C15.794898894083214 3.4355890541680614, 18.812349262477472 8.899324645492964, 22.869776652970774 14.755581545724414 M21.967756559044176 12.790942163394579 C19.862380625967567 16.7127278292575, 14.705897518743559 23.269278189787432, 10.627251767183349 26.6371721909428 M22.33598795323909 14.472244524447813 C20.340863253415566 17.422462480756582, 16.662915171495275 20.719063134800535, 11.392204880326895 26.440138610102323 M13.220005859343527 25.655986605992247 C9.250128429969712 22.35743135128945, 3.694659288043791 17.698097639838913, -0.8001719101525219 13.902540561582938 M11.746581497893704 25.617113929349312 C8.823235606871057 22.996076005670947, 5.70609547250946 19.43793345145115, 0.7996201117580162 14.614499534792541 M1.7111958720938572 15.393240064147923 C1.5105156336234529 11.696789254550373, 5.520975495312922 6.976361046814441, 12.003968855425416 -0.18590447141696465 M-0.14543251308898408 13.588310464456338 C1.9033717941624158 10.597564859114684, 6.281058347388241 7.681581606397688, 11.58331411592732 -0.4861220421396946" stroke="#000000" stroke-width="1" fill="none"></path></g><g transform="translate(64.75 638) rotate(0 11.5 13)"><path d="M10.415558277238434 -1.6027687196621296 C14.806183089304882 2.099449449286456, 16.771900160074683 7.229973498500068, 23.352096151092606 13.863513816755137 M11.892974397871265 0.6312646886226646 C14.333352320722165 4.212447700451699, 18.595510516008147 7.32876830095747, 23.755581545724414 14.171214117424114 M21.79094216339458 14.39677035641733 C18.79488270935836 16.053793691399306, 18.42991755453476 19.30089679620478, 12.637172190942799 25.735194729067118 M23.472244524447813 14.482958902006043 C19.911129948505327 17.22602659881917, 16.695717913640554 20.081845183180558, 12.440138610102325 26.442088279595428 M11.655986605992249 27.52216351154254 C8.800967261314685 22.502129519547037, 4.590801258171656 17.680882125533433, -0.09745943841706128 13.775442047900427 M11.617113929349314 26.34637298716556 C7.887559473115727 22.21536930390675, 3.351392158262223 17.925304703625045, 0.6144995347925419 13.660415907600893 M1.3932400641479226 12.358229424215258 C4.66430552734483 9.262876948208175, 6.904758108583362 6.143218473143576, 11.814095528583035 -1.3340739308651737 M-0.4116895355436613 13.140553021015696 C3.126024940501995 10.915598414051416, 6.731229428535612 5.822694939040345, 11.513877957860306 -0.012543423340763193" stroke="#000000" stroke-width="1" fill="none"></path></g><g transform="translate(557.5 10) rotate(0 223.5 413.5)"><path d="M0.8321143082860097 -0.41546632602437583 C175.29440942081828 -0.534360909936235, 351.82337812193543 -1.2037232927094914, 446.39884378715004 0.7125903205289021 M-0.09014385616587922 0.16737181684418245 C111.08357054638113 1.4891099730780102, 222.09239799727484 1.835265596101067, 446.9103160215595 -0.09449290332004502 M447.75233469083906 0.7478614918887616 C444.50186031330753 281.48607881488283, 444.4956247853153 561.9964755507186, 447.4820411927998 826.8104176394642 M447.0986033137888 -0.31944010220468044 C445.3035734966435 316.9691973148845, 445.3016583398022 634.670945465006, 446.97119036279616 826.730002534762 M447.4111030973183 827.8859946506095 C341.4439055054927 827.5120610561063, 234.46907665879496 827.2979916783715, 0.8169993586743935 827.4293033716532 M446.6214774057336 826.5639001639207 C288.783287662531 828.3695027271875, 129.93654885893488 828.0929429033798, -0.05259705102445408 827.1146299985768 M-0.04279293939471245 826.9420224778354 C0.1716454772241413 549.1441934469156, -0.24895314891263853 270.3831434382125, -0.7139882318675519 0.674059521406889 M0.2934689935296774 826.6417866710574 C-2.7442433627583087 586.2353154786862, -2.299121013496071 345.76629583965985, -0.10142518915235997 0.10469442643225194" stroke="#000000" stroke-width="1" fill="none"></path></g><g transform="translate(681.5 178) rotate(0 99 19)"><path d="M-1.231185195967555 1.4594054501503706 C74.31094645690173 1.295348825138062, 149.26518939211965 -0.6071159818954768, 198.68556457944214 0.8878142517060041 M-0.18367536459118128 -0.19352418091148138 C56.643529817089444 -1.6086377695389094, 112.78108255583794 -0.14820288570597784, 198.93482686486095 -0.9724062969908118 M199.20510298199952 -0.47395590133965015 C199.30221016509458 13.896267656050624, 197.88831163747236 30.70786503851414, 196.4027994889766 39.534132389351726 M197.92797590699047 -0.6749936630949378 C197.670554499235 8.679250203073025, 198.47956074317918 16.01832778658718, 198.9072712501511 38.89051604364067 M199.67323816008866 38.879225639626384 C137.72198734227567 36.913758306670935, 76.45298940837382 36.213399975467475, -1.7862899880856276 39.99598511867225 M197.89227972831577 38.23476553056389 C137.0100579097867 36.951894954238085, 75.02088628504424 37.02071873882785, -0.07247190270572901 37.70878449175507 M-1.7849705796688795 39.68514880351722 C0.12834082039073108 25.39169785249978, -0.34697814790531994 11.072213499993087, -1.7910666447132826 -0.5780069548636675 M-0.2535629728808999 38.26173606608063 C-0.05139913229271775 28.353418437018988, 0.4787775370664894 18.96148970108479, -0.06974072847515345 -0.4547042241320014" stroke="#000000" stroke-width="1" fill="none"></path></g><g transform="translate(683 118.5) rotate(0 99 19)"><path d="M1.1409457344561815 -1.4084520656615496 C73.95437086652964 3.0480581703595817, 147.593542534858 1.7149464669637382, 196.27044308371842 0.5580941718071699 M0.5182725330814719 -0.46655562426894903 C57.9547572221607 -0.9322183260507884, 114.75795543510468 -1.585393709857017, 197.20641110744327 0.67056739423424 M198.88798868842423 0.10197892598807812 C196.92268944306298 13.692352220974865, 196.65248102469369 29.504800024628643, 197.8429273981601 39.94843658618629 M198.13749502506107 -0.9776452770456672 C198.07167618414388 14.179029665887356, 197.0594019486569 25.956066890619695, 197.56798799242824 38.34838250372559 M197.9472131151706 37.92428239993751 C124.35334809366613 35.912479048538955, 48.84365245997904 36.52524823503569, -0.8101875763386488 37.435502557083964 M197.3456676742062 38.724301607348025 C147.83795159608127 36.00657078901306, 96.5042610535398 37.04985803643242, 0.8728546341881156 37.56604689452797 M1.2451937217265368 36.7461414616555 C-0.6446821310929953 23.427127336151898, -0.9837572791986167 10.06199924275279, 0.34900099225342274 -1.3731029350310564 M0.721983595751226 38.87015050742775 C-1.2836809834651648 28.036573127284647, -1.10914758650586 19.536553829722106, 0.5664150854572654 -0.5774098923429847" stroke="#000000" stroke-width="1" fill="none"></path></g><g transform="translate(682.25 299.25) rotate(0 99 19)"><path d="M-0.06923970766365528 1.7300713676959276 C58.119971291907135 -2.9279178345017134, 115.85962594076992 0.8521152174659075, 196.14511498622596 -1.1544998865574598 M-0.639863490127027 -0.8505319217219949 C50.819768807664516 -1.5660967290215195, 102.21018819194288 -1.7299718022160233, 198.10420551989228 0.10465072002261877 M198.78984507732093 -1.3882726412266493 C196.58408083425834 11.309246819652618, 199.41852207886055 18.483208617568017, 198.7082689087838 38.848495902493596 M197.05046764109284 -0.8764968076720834 C198.4576946807839 14.089918340742589, 197.33234560618178 29.081585831381382, 197.32771021220833 37.8996535083279 M199.67802646569908 38.015525760129094 C136.58885736819357 38.69904189957306, 70.36006844341755 35.83513497961685, -1.580645116046071 38.67960334010422 M198.72266465518624 37.745570494793355 C127.81833547800778 38.136374735143036, 56.643926688097395 37.81696110298857, -0.5414736559614539 38.525153084658086 M0.7575969379395247 39.96179127879441 C1.8280720114521682 28.039448712579905, 0.2175250053219497 19.199627584964038, -1.2019127327948809 -1.5295247416943312 M-0.4890866568312049 37.2979881009087 C-1.126040470022708 26.47972859404981, -0.8341017180867493 14.663955316133798, 0.7802537688985467 -0.3703214982524514" stroke="#000000" stroke-width="1" fill="none"></path></g><g transform="translate(683.75 239.75) rotate(0 99 19)"><path d="M1.7300713676959276 0.27499005012214184 C76.73423164915295 0.23821076778694983, 159.20378690436485 -1.7863377031870187, 196.84550011344254 -0.8640240151435137 M-0.8505319217219949 -0.026393442414700985 C66.26011477373541 1.7847934022359548, 132.39421327430756 1.3711352303437887, 198.10465072002262 -0.4050937881693244 M196.61172735877335 -1.3086646515876055 C199.28595048470422 11.85323145147413, 196.59926867766305 21.363178625702858, 198.8484959024936 39.74570926837623 M197.12350319232792 0.6225968608632684 C197.6199361195229 9.248225985467434, 197.89475600024684 18.829666610620915, 197.8996535083279 38.17450049612671 M198.0155257601291 39.44396719150245 C153.93402007166296 37.7315342910774, 105.2638322085142 38.08060108499601, 0.6796033401042223 39.13283017091453 M197.74557049479336 38.43335417006165 C150.4718589141965 39.30484008947387, 102.18516115043312 38.88940236130729, 0.5251530846580863 37.66454953048378 M1.9617912787944078 39.626818684861064 C0.5440648076124489 28.628804944641885, 1.8295318958349527 18.023153799027202, -1.5295247416943312 0.311193672940135 M-0.7020118990913033 37.18361896369606 C0.5804715338535607 22.978963378444313, 0.755966234523803 9.787065094523133, -0.3703214982524514 0.21095785591751337" stroke="#000000" stroke-width="1" fill="none"></path></g><g transform="translate(755.5 124.5) rotate(0 26.5 13)"><text x="26.5" y="18" font-family="Virgil, Segoe UI Emoji" font-size="20px" fill="#000000" text-anchor="middle" style="white-space: pre;" direction="ltr">100%</text></g><g transform="translate(760.5 184) rotate(0 20 13)"><text x="20" y="18" font-family="Virgil, Segoe UI Emoji" font-size="20px" fill="#000000" text-anchor="middle" style="white-space: pre;" direction="ltr">75%</text></g><g transform="translate(758.25 245.75) rotate(0 24.5 13)"><text x="24.5" y="18" font-family="Virgil, Segoe UI Emoji" font-size="20px" fill="#000000" text-anchor="middle" style="white-space: pre;" direction="ltr">50%</text></g><g transform="translate(757.25 305.25) rotate(0 24 13)"><text x="24" y="18" font-family="Virgil, Segoe UI Emoji" font-size="20px" fill="#000000" text-anchor="middle" style="white-space: pre;" direction="ltr">25%</text></g><g transform="translate(605 455.5) rotate(0 182.5 143.5)"><path d="M1.2155650662785917 1.0479383339024633 C127.36026793777577 1.3613082526975366, 256.2386196726915 1.9367420956660004, 365.75168533947436 -0.11009823436011373 M-0.4900479924504235 0.5764604256053641 C110.37470829111531 1.0951867778086437, 220.990079417752 0.8979132562076819, 365.0859824285651 -0.4733747351447865 M363.9139928283119 -1.0829781558051719 C363.1893911229346 108.19830212516389, 363.92747632334846 215.94929201847273, 363.52795038302025 286.75402677036806 M364.2710589885681 0.5759763688650555 C367.1904804349923 98.59925231087075, 366.60929005675996 197.2887297813379, 364.3831682915907 287.6336593750538 M364.0842555648872 287.20523666911043 C288.85310972584256 289.1639946955494, 211.29580545041188 287.5420908792466, -0.3624774961150735 286.00497702928413 M365.52927187804966 287.44506533534064 C239.63049768289954 285.29453490096955, 113.95246366041027 285.3946192263382, -0.46922538661903884 286.5317465123743 M0.1500754070591822 286.6707837537853 C0.6978914938968428 190.24936952832135, 0.5197974051596888 95.7043037233026, 0.38038610368951703 0.9320431966790064 M-0.13105390316839888 287.4819521582174 C-2.4632523126553716 182.67014360576243, -1.3599308199206297 79.10895968474742, 0.686184533068054 -0.4067418719571881" stroke="#000000" stroke-width="1" fill="none"></path></g><g transform="translate(619 480.5) rotate(0 37 25.5)"><path d="M-1.4384917337447405 -1.4344795923680067 C28.037386881373823 0.16254118381068117, 56.81682193875313 0.06336853204295045, 72.05016830377281 -0.32580858282744884 M-0.9655328681692481 0.7629206022247672 C26.447813835740092 0.10317841058596966, 51.185410760901874 -0.21202093476429584, 73.1829636702314 0.8393257400020957 M72.53469636850059 0.3284038919955492 C74.5568517156411 11.795391384419053, 72.68428650577553 19.87340373340994, 73.41999146156013 49.40784096904099 M74.84690004680306 0.7121592303737998 C75.03846206716261 16.57778967199847, 75.18298279694281 34.31104916483164, 73.24918171856552 50.250736876390874 M74.19878527335823 50.563930274918675 C47.912074646539985 49.461810112763196, 23.109950735419986 50.43146604375914, 0.5038477461785078 52.23455578275025 M73.82641002628952 51.638379021547735 C46.39764932282269 50.63681064652279, 21.062975266389543 51.11925877736881, 0.9088989505544305 50.46124221291393 M-0.05151066370308399 52.52875238843262 C-1.1111117521394043 35.813799160812046, 0.45817560757510367 25.507356141321356, -1.2586266119033098 0.8348168153315783 M0.8190969238057733 51.62760902848095 C-0.32079233451746403 32.36136609548703, 1.1286504991445692 13.438032975420356, 0.8138792822137475 0.7668317398056388" stroke="#000000" stroke-width="1" fill="none"></path></g><g transform="translate(707 480.5) rotate(0 52.5 25.5)"><path d="M-1.6340726595371962 1.6786514800041914 C25.1211486752145 1.4641925869975236, 55.15359359700233 -0.6779000581707807, 105.32840389199553 0.38427051715552807 M-0.29000426921993494 -0.7960795154795051 C37.83690976491198 1.5581929012667386, 74.30743551626801 1.620283745182678, 105.71215923037379 0.6382093736901879 M103.49836343713103 -1.4985262472182512 C106.03871288056484 8.51925192559138, 106.51696904654614 20.646494743786754, 104.56393027491866 49.47830059938133 M105.25192387308924 0.6172778913751245 C105.17290724211371 11.178915938455612, 104.7849511294905 20.47239698022604, 105.63837902154772 50.19374913070351 M106.81779790110885 49.92248442582786 C78.3706931513734 49.052519344678146, 54.0568910902366 50.89256247221492, 1.528752388432622 49.40654203109443 M104.37068669404833 51.41740840766579 C83.72173589887096 50.948453665198755, 60.26863070763646 52.48087188643403, 0.627609028480947 50.31541380379349 M1.627758564427495 52.53366347961128 C-0.92025256912224 33.856969804968685, 0.40014760931022464 17.861396049149334, -1.5497738104313612 -1.1316033322364092 M0.2538757463917136 51.836154074408114 C-0.046333895334973896 34.56982313310728, -0.010604934105649555 18.984859112277626, -0.6725982585921884 -0.9905405035242438" stroke="#000000" stroke-width="1" fill="none"></path></g><g transform="translate(834.5 481) rotate(0 52.5 25.5)"><path d="M0.21121385507285595 -0.4960017781704664 C40.59428053395822 0.9326698431279512, 76.50911410432307 -2.6839378824923186, 106.04536148719488 0.6443483848124743 M-0.22222417499870062 -0.9831513622775674 C28.34022873500362 -0.7790562293957919, 55.22268992289901 -0.8240481696557254, 104.3374671647325 0.8775088032707572 M103.02630373649298 -0.2923357468098402 C106.1128919242788 15.591499591525643, 104.11124689568764 34.64428214970976, 105.90912499837576 51.37279659695923 M105.2901837537065 -0.5400248328223825 C105.00623258731326 12.587332563381644, 104.92572718641719 25.93568204790354, 104.80937922094016 51.54437400307506 M105.39966502599417 51.230469765141606 C79.99225756851955 49.28298434601165, 54.19999102596193 49.745825320342554, -0.9757858831435442 52.83963477797806 M105.4231904754415 50.82744003739208 C68.55361411301419 50.98441781136207, 31.978960579261184 52.56477110120468, -0.1785237481817603 51.48015151824802 M0.0990589540451765 52.67477071471512 C-1.5252453035581857 37.244651350472125, -0.29292350475676354 26.441120807640253, -0.6091880518943071 1.8835470099002123 M-0.9605025937780738 50.579295738600194 C0.3387181554827839 34.64943624073639, 0.8496949170622974 16.92952146790922, -0.5516262641176581 0.4486047765240073" stroke="#000000" stroke-width="1" fill="none"></path></g><g transform="translate(631.5 493) rotate(0 24.5 13)"><text x="24.5" y="18" font-family="Virgil, Segoe UI Emoji" font-size="20px" fill="#000000" text-anchor="middle" style="white-space: pre;" direction="ltr">Time</text></g><g transform="translate(744.5 493) rotate(0 15 13)"><text x="15" y="18" font-family="Virgil, Segoe UI Emoji" font-size="20px" fill="#000000" text-anchor="middle" style="white-space: pre;" direction="ltr">You</text></g><g transform="translate(848.5 493.5) rotate(0 38.5 13)"><text x="38.5" y="18" font-family="Virgil, Segoe UI Emoji" font-size="20px" fill="#000000" text-anchor="middle" style="white-space: pre;" direction="ltr">Average</text></g><g transform="translate(618.75 553.75) rotate(0 37 25.5)"><path d="M-1.1032525282353163 0.8972095530480146 C28.794043395854533 1.8564863875694573, 56.309627360105516 -0.7372282668761909, 73.92612618394196 -1.96297493763268 M-0.1839257637038827 -0.28053975012153387 C26.84182835519314 0.8283171852864325, 54.194958839751784 0.3544392486847937, 74.08086819853634 -0.41118845250457525 M74.31257742829621 0.42504128627479076 C75.45248896236531 14.001214856747538, 76.18131733293644 24.138757369481027, 74.46579837985337 51.55359390191734 M74.84100027289242 -0.07582721021026373 C74.1169287877623 11.703237697202713, 74.33714604550042 23.36514657586813, 74.94650678243488 51.828894914127886 M73.9185795802623 52.75491884164512 C54.54804603438824 49.555374056827276, 35.292504630237815 49.315377206336706, -1.3167473655194044 50.28791901282966 M74.23609594907612 51.58755785319954 C54.992059082910416 51.45395544273779, 35.482319969125086 50.870082617830484, -0.6166657069697976 51.92965886089951 M-0.8489057403057814 49.47100969962776 C-1.6429452578257768 39.64055853625759, -1.5294924060534685 23.052506588585672, -1.8113425951451063 0.681589750573039 M-0.689953432418406 50.25786373112351 C0.10962925254367295 33.209679507371035, -1.1856774002406745 15.564175680652262, 0.5349969705566764 0.8387657413259149" stroke="#000000" stroke-width="1" fill="none"></path></g><g transform="translate(706.75 553.75) rotate(0 52.5 25.5)"><path d="M0.8972095530480146 1.2023351807147264 C40.72504296200349 1.705418507149443, 76.93486298900096 0.5053337612655013, 103.0370250623673 1.2367855329066515 M-0.28053975012153387 0.06572188343852758 C36.55194488028064 0.8358679481316358, 72.16897636279462 0.27399025042541325, 104.58881154749541 -0.477790848352015 M105.42504128627478 1.167929770424962 C105.75470233608966 20.042350060399624, 103.02897817541843 36.75698221866042, 105.55359390191732 49.53123945184052 M104.92417278978972 -0.25526405964046717 C104.98951407394371 18.98688167212531, 105.0967623504158 38.99036373049021, 105.82889491412787 50.58639986719936 M106.75491884164511 50.68740505166352 C81.59535825578494 50.528476944426075, 59.221470811404274 49.640506914118305, -0.7120809871703386 50.13866830058396 M105.58755785319953 51.005131795071065 C80.26480806199832 50.75636613997631, 55.22886342369019 50.631235039560124, 0.929658860899508 50.56287448015064 M-1.528990300372243 49.109210731461644 C1.8094594919215887 36.40110369035974, -1.7079326069820673 23.54553761910647, 0.681589750573039 1.0188499111682177 M-0.742136268876493 51.3401650628075 C0.1136495356354863 32.439500307384876, 0.3662129823956639 16.32428076528013, 0.8387657413259149 0.06109954323619604" stroke="#000000" stroke-width="1" fill="none"></path></g><g transform="translate(834.25 554.25) rotate(0 52.5 25.5)"><path d="M1.2023351807147264 1.9215082805603743 C33.54881887091324 -1.1432413892354816, 64.77134206611663 -2.434009952982888, 106.23678553290664 0.8744589369744062 M0.06572188343852758 0.46103546116501093 C26.931316026952114 0.2817242621909827, 52.65800845995545 -0.11662171487696471, 104.52220915164797 0.5579591998830438 M106.16792977042495 1.1379481833428144 C106.97646538521161 9.879765550140291, 105.54550562406888 23.48867695685476, 103.5312394518405 52.45957979373634 M104.74473594035952 0.14857709500938654 C105.39386333727276 13.965195160824805, 106.37541692161 28.24763449281454, 104.58639986719935 50.107989580370486 M104.6874050516635 49.72924884967506 C75.53836499573661 50.410584391048175, 45.61753729637711 51.20925140469335, -0.8613316994160414 49.657537488266826 M105.00513179507105 50.71687987539917 C62.5499607217498 50.74994279635139, 20.46632494963704 52.54659460675903, -0.43712551984936 50.51403135154396 M-1.8907892685383558 52.71121838502586 C-1.5608654529880732 34.8762373550795, -1.594871631367132 23.046411888487636, 1.0188499111682177 0.9040620010346174 M0.34016506280750036 51.10774678084999 C-0.6032653394434602 36.1193377754651, 0.8868732210900634 21.356820837035773, 0.06109954323619604 -0.6639484455808997" stroke="#000000" stroke-width="1" fill="none"></path></g><g transform="translate(631.25 566.25) rotate(0 24.5 13)"><text x="24.5" y="18" font-family="Virgil, Segoe UI Emoji" font-size="20px" fill="#000000" text-anchor="middle" style="white-space: pre;" direction="ltr">Time</text></g><g transform="translate(744.25 566.25) rotate(0 15 13)"><text x="15" y="18" font-family="Virgil, Segoe UI Emoji" font-size="20px" fill="#000000" text-anchor="middle" style="white-space: pre;" direction="ltr">You</text></g><g transform="translate(848.25 566.75) rotate(0 38.5 13)"><text x="38.5" y="18" font-family="Virgil, Segoe UI Emoji" font-size="20px" fill="#000000" text-anchor="middle" style="white-space: pre;" direction="ltr">Average</text></g><g transform="translate(673 407.5) rotate(0 109.5 17.5)"><path d="M1.2499490345966027 -0.474093387394993 C76.80414321690039 -3.096756567581604, 155.07621350249244 -3.3680306544577583, 219.99167518244965 1.2457176267324046 M0.5353563775100983 -0.2997588100416817 C67.88926745227364 1.1861522842630499, 135.79760871700682 1.2185430728553168, 219.15352530574918 0.7068706187478148 M218.50737777166069 0.6324158329516649 C218.40961499963888 10.980523904319854, 220.78490211521276 24.763509371317927, 220.06201109103858 35.337375523522496 M219.25363433454186 -0.8170373300090432 C219.96807585931384 13.48741388646886, 219.8624192056712 26.379403822124008, 218.66124323103577 34.87200532760471 M217.99932151466166 33.30824863309994 C162.5348018939783 35.02158363212542, 104.94581160070432 36.0071726611886, 1.160044856249444 36.285313616920334 M219.42269801027192 35.629463435395515 C136.7939347767309 36.50855526505482, 55.98840576250521 35.761605198924485, -0.39495321458196264 34.71356771407972 M1.56960061006248 33.19104832597077 C0.24861689577810464 23.498353673610836, -0.8636867784429342 10.920834268443283, 0.4934928100556135 1.3914341945201159 M0.9610034832730889 35.59914107527584 C-0.9482462116982788 20.309610719326884, 0.5028502932284027 6.328993594273921, 0.5916062304750085 -0.5756487408652902" stroke="#000000" stroke-width="1" fill="none"></path></g><g transform="translate(722.5 412) rotate(0 60 13)"><text x="60" y="18" font-family="Virgil, Segoe UI Emoji" font-size="20px" fill="#000000" text-anchor="middle" style="white-space: pre;" direction="ltr">Show Energy</text></g><g transform="translate(587 33.5) rotate(0 197 23)"><path d="M-0.9693333485014088 0.447724888493634 C143.50935893326226 -0.635988270169058, 285.43310527097 -0.023965268061080125, 393.1516063110602 0.6777963869806536 M-0.2152745607596513 0.2336031708726581 C145.02109688582738 -0.7743573223673527, 289.9787869796194 -1.4253434243038718, 394.49910181840903 0.024302821520620212 M393.6650787871331 1.0181337017565966 C392.14089612284675 16.078814399428666, 392.76906714955345 30.611970148980618, 393.43148883990943 47.39779126830399 M394.1730481395498 -0.7932557919993997 C394.51900335984305 14.649424863606692, 393.4635404928215 32.000689160265026, 393.879675895907 45.83517132606357 M393.5269172237403 46.07384636930595 C292.1820012261427 47.860214268630955, 191.67953510377623 47.34222456379771, -0.5369830195316203 45.2811537891568 M394.25021606837254 46.406235611264464 C311.66689542756785 47.284047179324006, 229.36816979346514 47.01226189883906, -0.4068198571333166 45.59230511767338 M1.081275014206767 44.226210774853826 C1.4776405710540712 31.940179160796106, 0.07232237046584489 17.83817045018077, -0.4207513649016619 1.910864831879735 M-0.375426827929914 45.77158899512142 C0.38590504756197336 33.00473069287836, -0.5664179421402513 21.102205543406303, 0.6933549353852868 0.9360859831795096" stroke="#000000" stroke-width="1" fill="none"></path></g><g transform="translate(728 49.5) rotate(0 46 13)"><text x="0" y="18" font-family="Virgil, Segoe UI Emoji" font-size="20px" fill="#000000" text-anchor="start" style="white-space: pre;" direction="ltr">Input ID</text></g></svg>